<?xml version="1.0" encoding="UTF-8"?>
<svg width="200" height="200" viewBox="0 0 200 200" fill="none" xmlns="http://www.w3.org/2000/svg">
  <!-- Outer circle with soft shadow -->
  <circle cx="100" cy="100" r="95" fill="white" stroke="#e0e0e0" stroke-width="2" />
  
  <!-- Camera icon -->
  <g transform="translate(55, 50) scale(0.9)">
    <path d="M45 75.8c-8.2 0-15-6.8-15-15s6.8-15 15-15 15 6.8 15 15-6.8 15-15 15z" fill="#666"/>
    <path d="M82.5 23.8h-16l-5.2-10.4c-1.1-2.2-3.4-3.7-5.9-3.7h-20.8c-2.5 0-4.8 1.5-5.9 3.7l-5.2 10.4h-16c-4.1 0-7.5 3.4-7.5 7.5v52.5c0 4.1 3.4 7.5 7.5 7.5h75c4.1 0 7.5-3.4 7.5-7.5v-52.5c0-4.1-3.4-7.5-7.5-7.5z" fill="#666"/>
    <path d="M45 60.8c0-8.3 6.7-15 15-15s15 6.7 15 15h10c0-13.8-11.2-25-25-25s-25 11.2-25 25h10z" fill="#666"/>
  </g>

  <!-- Fork and knife -->
  <g transform="translate(110, 60) scale(0.7)">
    <path d="M15 95V5c0-2.8 2.2-5 5-5s5 2.2 5 5v90" stroke="#666" stroke-width="6" stroke-linecap="round"/>
    <path d="M55 5v30c0 8.3-6.7 15-15 15v45" stroke="#666" stroke-width="6" stroke-linecap="round"/>
  </g>
</svg>